<?xml version="1.0" standalone="no"?><!DOCTYPE svg PUBLIC "-//W3C//DTD SVG 1.1//EN" "http://www.w3.org/Graphics/SVG/1.1/DTD/svg11.dtd"><svg t="1624240568119" class="icon" viewBox="0 0 1024 1024" version="1.1" xmlns="http://www.w3.org/2000/svg" p-id="13234" xmlns:xlink="http://www.w3.org/1999/xlink" width="200" height="200"><defs><style type="text/css"></style></defs><path d="M826.38 979.194H197.62c-71.731 0-130.592-55.342-130.592-123.984V168.79c0-68.642 58.604-123.813 130.592-123.813h111.543V96.46H197.62c-43.588 0-79.11 32.433-79.11 72.331v686.42c0 39.898 35.436 72.331 79.11 72.331h628.846c43.588 0 79.11-32.433 79.11-72.331V168.79c0-39.898-35.437-72.331-79.11-72.331H722.473V44.977H826.38c71.731-0.171 130.592 55.171 130.592 123.813v686.42c0 68.642-58.86 123.984-130.592 123.984z" p-id="13235" fill="#d83993"></path><path d="M598.918 96.287H437.352a25.74 25.74 0 1 1 0-51.481h161.566a25.74 25.74 0 0 1 0 51.481z m170.49 287.01H276.471a25.74 25.74 0 0 1 0-51.482h492.935a25.74 25.74 0 0 1 0 51.481z m0 169.03H276.471a25.74 25.74 0 1 1 0-51.481h492.935a25.74 25.74 0 1 1 0 51.481z m0 168.945H276.471a25.74 25.74 0 0 1 0-51.481h492.935a25.74 25.74 0 0 1 0 51.481z" p-id="13236" fill="#d83993"></path></svg>