<?xml version="1.0" standalone="no"?><!DOCTYPE svg PUBLIC "-//W3C//DTD SVG 1.1//EN" "http://www.w3.org/Graphics/SVG/1.1/DTD/svg11.dtd"><svg t="1624627878955" class="icon" viewBox="0 0 1024 1024" version="1.1" xmlns="http://www.w3.org/2000/svg" p-id="1677" xmlns:xlink="http://www.w3.org/1999/xlink" width="200" height="200"><defs><style type="text/css"></style></defs><path d="M629.25 144.12c-26.77-17.85-60.48-21.11-90.17-8.74-1.67 0.7-3.28 1.53-4.81 2.5L238.88 324.97c-14.93 9.46-19.37 29.23-9.91 44.16 9.46 14.93 29.23 19.37 44.16 9.91l292.7-185.38c9.44-3.21 19.51-1.9 27.93 3.72C602.81 203.41 608 213.12 608 224v576c0 10.88-5.19 20.59-14.25 26.63-8.42 5.61-18.48 6.92-27.93 3.72L278.84 648.59c-5.81-5.92-13.9-9.59-22.84-9.59h-96c-17.65 0-32-14.36-32-32V416c0-17.67-14.33-32-32-32s-32 14.33-32 32v191c0 52.93 43.07 96 96 96h85.14l289.12 183.11c1.53 0.97 3.14 1.81 4.81 2.5a96.053 96.053 0 0 0 36.96 7.41c18.66 0 37.19-5.46 53.22-16.15C656.02 862.03 672 832.17 672 800V224c0-32.17-15.98-62.03-42.75-79.88zM877.41 511.85l73.22-73.22c12.5-12.5 12.5-32.76 0-45.25-12.5-12.5-32.76-12.5-45.26 0l-73.28 73.28-73.49-73.31c-12.51-12.48-32.77-12.46-45.25 0.06-12.48 12.51-12.46 32.77 0.06 45.25l73.44 73.25-73.47 73.47c-12.5 12.5-12.5 32.76 0 45.26 6.25 6.25 14.44 9.37 22.63 9.37s16.38-3.12 22.63-9.37l73.52-73.52 73.25 73.06c6.25 6.23 14.42 9.34 22.6 9.34 8.2 0 16.41-3.13 22.66-9.4 12.48-12.51 12.46-32.77-0.06-45.25l-73.2-73.02z" p-id="1678"></path></svg>