<?xml version="1.0" standalone="no"?>
<!DOCTYPE svg PUBLIC "-//W3C//DTD SVG 1.1//EN" "http://www.w3.org/Graphics/SVG/1.1/DTD/svg11.dtd"><svg t="1624237380340"
  class="icon" viewBox="0 0 1024 1024" version="1.1" xmlns="http://www.w3.org/2000/svg" p-id="1959"
  xmlns:xlink="http://www.w3.org/1999/xlink" width="200" height="200">
  <defs>
    <style type="text/css"></style>
  </defs>
  <path d="M102.425742 102.393565v819.148516l614.361387-409.574258z" p-id="1960"></path>
  <path d="M153.622524 102.393565v819.148516l614.361387-409.574258z" p-id="1961"></path>
  <path d="M259.599863 15.871003V834.507551l619.481066-405.478515z" p-id="1962"></path>
  <path d="M261.135767 189.428094l-1.535904 818.636549L875.497154 599.002353z" p-id="1963"></path>
  <path
    d="M204.819306 102.393565m-102.393564 0a102.393565 102.393565 0 1 0 204.787129 0 102.393565 102.393565 0 1 0-204.787129 0Z"
    p-id="1964"></path>
  <path
    d="M819.180694 409.574258c-56.316461 0-102.393565 46.077104-102.393565 102.393565s46.077104 100.345693 102.393565 102.393564c57.852364 2.047871 102.905532-45.053168 102.393564-102.393564-0.511968-56.316461-46.077104-102.393565-102.393564-102.393565zM204.819306 819.148517c-56.316461 0-102.393565 46.077104-102.393564 102.393564s46.077104 100.345693 102.393564 102.393565c53.756621 2.047871 100.857661-45.053168 102.393565-102.393565 1.535903-56.316461-46.077104-102.393565-102.393565-102.393564z"
    p-id="1965"></path>
</svg>