<?xml version="1.0" standalone="no"?><!DOCTYPE svg PUBLIC "-//W3C//DTD SVG 1.1//EN" "http://www.w3.org/Graphics/SVG/1.1/DTD/svg11.dtd"><svg t="1624627826617" class="icon" viewBox="0 0 1024 1024" version="1.1" xmlns="http://www.w3.org/2000/svg" p-id="1523" xmlns:xlink="http://www.w3.org/1999/xlink" width="200" height="200"><defs><style type="text/css"></style></defs><path d="M758.63 353.61c-12.5-12.5-32.76-12.5-45.25 0-12.5 12.5-12.5 32.76 0 45.25 62.38 62.38 62.38 163.89 0 226.27-12.5 12.5-12.5 32.76 0 45.25 6.25 6.25 14.44 9.37 22.63 9.37s16.38-3.12 22.63-9.37c42.31-42.31 65.61-98.56 65.61-158.39-0.01-59.82-23.31-116.07-65.62-158.38z" p-id="1524"></path><path d="M930.01 355.48c-20.93-51.62-51.68-97.93-91.38-137.63-12.5-12.5-32.76-12.5-45.25 0-12.5 12.5-12.5 32.76 0 45.25 137.24 137.24 137.24 360.56 0 497.8-12.5 12.5-12.5 32.76 0 45.25 6.25 6.25 14.44 9.37 22.63 9.37s16.38-3.12 22.63-9.37c39.7-39.7 70.45-86.01 91.38-137.63 20.21-49.85 30.46-102.51 30.46-156.52-0.01-54.02-10.26-106.68-30.47-156.52zM629.26 144.19c-26.77-17.85-60.48-21.11-90.18-8.74-1.67 0.7-3.28 1.53-4.81 2.5L238.88 324.99c-14.93 9.45-19.37 29.22-9.92 44.16 9.45 14.93 29.23 19.37 44.15 9.92l292.7-185.34c9.45-3.21 19.51-1.9 27.93 3.72 9.05 6.04 14.24 15.73 14.24 26.61v575.89c0 10.88-5.19 20.58-14.24 26.61-8.42 5.62-18.48 6.93-27.93 3.72L278.84 648.56c-5.81-5.92-13.89-9.59-22.84-9.59h-96c-17.65 0-32-14.35-32-31.99V416.02c0-17.67-14.33-32-32-32s-32 14.33-32 32v190.96c0 52.93 43.07 95.99 96 95.99h85.14l289.12 183.08c1.53 0.97 3.14 1.81 4.81 2.5a96.053 96.053 0 0 0 36.96 7.41c18.66 0 37.19-5.46 53.22-16.15 26.76-17.84 42.74-47.7 42.74-79.86v-575.9c0.01-32.16-15.97-62.01-42.73-79.86z" p-id="1525"></path></svg>